<svg id="Component_1_1" data-name="Component 1 – 1" xmlns="http://www.w3.org/2000/svg" width="279.837" height="219.978" viewBox="0 0 279.837 219.978">
  <text id="Mobile" transform="translate(132.012 211.978)" fill="#ffa3d8" font-size="31" font-family="Montserrat-SemiBold, Montserrat" font-weight="600" letter-spacing="0.025em"><tspan x="-66.201" y="0">MOBILE</tspan></text>
  <g id="Group_3" data-name="Group 3">
    <path id="Path_1" data-name="Path 1" d="M482.112,623.743q-11.606-1.817-22.318-3.091l2.75-5.5c-.955-.318-5.091,2.864-5.091,2.864l3.5-15.909c-4.773.636-7,16.863-7,16.863l-5.409-5.409,2.663,6.124a493.126,493.126,0,0,0-56.561-2.848L397,612.129c-.954-.318-5.091,2.864-5.091,2.864l3.5-15.909c-4.773.636-7,16.863-7,16.863L383,610.538l2.82,6.486a317.5,317.5,0,0,0-32.461,2.614c2.349-7.317,10.55-14.35,10.55-14.35-6.306,1.962-9.587,5.158-11.286,8.121a127.767,127.767,0,0,1,6.831-44.235s-12.727,28.636-10.818,47.727l.242,3.391a130.407,130.407,0,0,0-16.628,3.45Z" transform="translate(-277.524 -438.77)" fill="#3f3d56"/>
    <path id="Path_2" data-name="Path 2" d="M886.74,600.447a3.818,3.818,0,1,1,3.818-3.818A3.818,3.818,0,0,1,886.74,600.447Zm0-7a3.182,3.182,0,1,0,3.182,3.182A3.182,3.182,0,0,0,886.74,593.448Z" transform="translate(-652.984 -454.886)" fill="#3f3d56"/>
    <path id="Path_3" data-name="Path 3" d="M977.29,725.641h-6.281V719.36h6.281Zm-5.8-.483h5.315v-5.315h-5.315Z" transform="translate(-713.044 -541.17)" fill="#3f3d56"/>
    <path id="Path_4" data-name="Path 4" d="M313.213,721.158l-4.284-4.593,4.593-4.284,4.284,4.593Zm-3.6-4.57,3.625,3.887,3.887-3.625-3.625-3.886Z" transform="translate(-261.623 -536.342)" fill="#3f3d56"/>
    <rect id="Rectangle_4" data-name="Rectangle 4" width="272.942" height="0.636" transform="translate(6.896 184.117)" fill="#3f3d56"/>
    <path id="Path_5" data-name="Path 5" d="M514.646,201.884v20.9a.73.73,0,0,1-.729.729H513.4V332.375a11.359,11.359,0,0,1-11.358,11.359H434.017a11.357,11.357,0,0,1-11.356-11.358V227.329h-.375a.515.515,0,0,1-.515-.512V214.923a.515.515,0,0,1,.516-.515h.375v-4.48h-.379a.54.54,0,0,1-.538-.541V197.656a.539.539,0,0,1,.538-.538h.379V191h-.385a.477.477,0,0,1-.477-.477v-6.4a.479.479,0,0,1,.477-.48h.385V170.681a11.356,11.356,0,0,1,11.355-11.356H502.04A11.359,11.359,0,0,1,513.4,170.681v30.475h.519A.73.73,0,0,1,514.646,201.884Z" transform="translate(-338.543 -159.325)" fill="#3f3d56"/>
    <rect id="Rectangle_5" data-name="Rectangle 5" width="12.671" height="2.573" rx="1.286" transform="translate(120.901 5.825)" fill="#e6e8ec"/>
    <circle id="Ellipse_1" data-name="Ellipse 1" cx="1.459" cy="1.459" r="1.459" transform="translate(135.487 5.652)" fill="#e6e8ec"/>
    <path id="Path_6" data-name="Path 6" d="M522.289,186.632v160.39a7.207,7.207,0,0,1-7.207,7.2H449.967a7.185,7.185,0,0,1-3.328-.811,6.74,6.74,0,0,1-.7-.414,7.212,7.212,0,0,1-3.179-5.978V186.632a7.206,7.206,0,0,1,7.207-7.207h9.745v1.25a5.934,5.934,0,0,0,5.934,5.934h33.116a5.934,5.934,0,0,0,5.934-5.934v-1.25h10.385A7.2,7.2,0,0,1,522.289,186.632Z" transform="translate(-352.872 -173.03)" fill="#ffa3d8"/>
    <path id="Path_7" data-name="Path 7" d="M522.288,601.353v22.96a7.207,7.207,0,0,1-7.207,7.2H449.967a7.187,7.187,0,0,1-3.328-.811,6.746,6.746,0,0,1-.7-.414,7.212,7.212,0,0,1-3.179-5.979v-22.95A59.49,59.49,0,0,1,522.288,601.353Z" transform="translate(-352.872 -450.32)" fill="#fff" opacity="0.3"/>
    <path id="Path_8" data-name="Path 8" d="M526.728,674.934a7.13,7.13,0,0,1-3.334.818H458.278a7.186,7.186,0,0,1-3.328-.811,38.869,38.869,0,0,1,71.779,0Z" transform="translate(-361.183 -494.556)" fill="#fff" opacity="0.3"/>
    <path id="Path_9" data-name="Path 9" d="M542.925,696.4a4.315,4.315,0,0,1-2.018.495H501.5a4.348,4.348,0,0,1-2.014-.491,23.52,23.52,0,0,1,43.435,0Z" transform="translate(-391.552 -515.639)" fill="#fff" opacity="0.3"/>
    <path id="Path_10" data-name="Path 10" d="M498.774,350.806c-6.532,0-13.7-1.244-19.3-5.441-7.791-5.843-17.391-5.532-24.071-4.241a52.457,52.457,0,0,0-12.814,4.268l-.294-.564a53.121,53.121,0,0,1,12.971-4.326c6.812-1.318,16.608-1.634,24.59,4.353,14.954,11.216,41.732,1.142,42,1.04l.228.594a77.113,77.113,0,0,1-15.5,3.773A59.234,59.234,0,0,1,498.774,350.806Z" transform="translate(-352.556 -282.319)" fill="#fff"/>
    <path id="Path_11" data-name="Path 11" d="M442.75,352.66s21.954-5.317,37.227,1.963,42.318-.054,42.318-.054" transform="translate(-352.865 -289.867)" fill="#fff" opacity="0.3"/>
    <path id="Path_12" data-name="Path 12" d="M463.167,358.867a41.822,41.822,0,0,1-7.9-.789,53.121,53.121,0,0,1-12.971-4.326l.294-.564a52.454,52.454,0,0,0,12.814,4.268c6.68,1.291,16.28,1.6,24.071-4.241,7.976-5.982,19.147-5.965,27.113-4.9a77.107,77.107,0,0,1,15.5,3.773l-.228.594c-.269-.1-27.045-10.177-42,1.04A27.34,27.34,0,0,1,463.167,358.867Z" transform="translate(-352.556 -287.815)" fill="#fff" opacity="0.3"/>
    <path id="Path_13" data-name="Path 13" d="M463.332,355.618a62.454,62.454,0,0,1-20.953-4.014l.242-.589c.218.09,21.982,8.877,36.94.021,15.217-9.011,42.288-.968,42.559-.885l-.185.609c-.269-.081-27.075-8.044-42.051.824A32.317,32.317,0,0,1,463.332,355.618Z" transform="translate(-352.612 -287.128)" fill="#fff" opacity="0.3"/>
    <path id="Path_14" data-name="Path 14" d="M442.76,352.167s21.951,7.281,37.224,0,42.3-.688,42.3-.688" transform="translate(-352.872 -288.474)" fill="#fff" opacity="0.3"/>
    <path id="Path_15" data-name="Path 15" d="M710.519,420.725V430s.742,10.389,4.823,15.583c0,0,6.679,9.461,7.606,7.421l-1.142-6.718-3.867-3.67-2.041-11.5-.557-10.389Z" transform="translate(-535.436 -337.553)" fill="#ffb8b8"/>
    <path id="Path_16" data-name="Path 16" d="M667.2,524.941v6.864l-5.565,2.041v-7.977Z" transform="translate(-451.116 -357.917)" fill="#ffb8b8"/>
    <path id="Path_17" data-name="Path 17" d="M637.992,522.609l3.71,8.348-5.194,2.226-1.113-8.163Z" transform="translate(-433.227 -356.327)" fill="#ffb8b8"/>
    <path id="Path_18" data-name="Path 18" d="M770.919,469.775s7.421,66.971,4.638,67.156-8.163,3.71-8.163,1.3-4.267-33.763-4.267-33.763l-4.081-16.14v22.262l4.267,25.23s-4.081,5.38-7.05,2.226l-6.307-24.674s-8.348-37.474-7.977-40.443C741.978,472.929,761.087,456.6,770.919,469.775Z" transform="translate(-556.877 -367.496)" fill="#2f2e41"/>
    <path id="Path_19" data-name="Path 19" d="M822.333,703.147s1.484-3.154,4.823-1.113l2.783,3.339s7.175,5.941,2.084,7.214c-5.247,1.312-8.391-.084-8.391-.084a4.057,4.057,0,0,0-1.67-.557,4.04,4.04,0,0,1-2.412-1.67c0-.371.557-6.945.557-6.945a1.17,1.17,0,0,1,1.3.185C821.962,704.074,822.333,703.147,822.333,703.147Z" transform="translate(-609.776 -528.888)" fill="#2f2e41"/>
    <path id="Path_20" data-name="Path 20" d="M785.548,701.078s3.525-2.783,5.194.371c0,0,1.051.371,1.175,0s1.051-.557,1.051,1.484,1.007,7.13.08,7.316-1.855.742-1.67,1.484-1.007.847-5.274.661-4.452-1.855-4.452-1.855a6.711,6.711,0,0,1,1.113-3.71C783.878,705.53,785.548,701.078,785.548,701.078Z" transform="translate(-583.936 -527.931)" fill="#2f2e41"/>
    <path id="Path_21" data-name="Path 21" d="M749.274,321.605s-.928,6.864,5.009,9.276-13.172,10.389-15.027,5.751.371-6.122.371-6.122,1.855-1.855.186-6.864Z" transform="translate(-554.526 -269.971)" fill="#ffb8b8"/>
    <circle id="Ellipse_2" data-name="Ellipse 2" cx="8.163" cy="8.163" r="8.163" transform="translate(180.649 40.132)" fill="#ffb8b8"/>
    <path id="Path_22" data-name="Path 22" d="M748.813,357.755s-5.565,2.968-10.945.742-5.195,7.421-5.195,7.421l2.783,7.235L754.75,371.3l-1.3-11.131Z" transform="translate(-550.541 -294.619)" fill="#f2f2f2"/>
    <path id="Path_23" data-name="Path 23" d="M729.354,337.8a6.734,6.734,0,0,1,4.62,3.565l8.9,2.783,2.226,3.154-2.6,22.818s4.823,4.638,4.823,7.235,5.936,11.5,2.968,10.389-8.348-5.009-8.348-5.009-13.543.556-17.809,4.267-5.937,2.6-5.937,2.6-4.452-19.294-4.638-22.262-5.38-20.778-5.38-20.778l9.276-5.194,2.363-2.681,6.542,10.472,5.936-7.235S729.371,339.619,729.354,337.8Z" transform="translate(-533.846 -281.016)" fill="#42a5f5"/>
    <path id="Path_24" data-name="Path 24" d="M821.035,412.562l1.113,5.936s5.009,18.552,4.267,24.859c0,0,.557,14.1-2.6,12.43s-1.484-11.873-1.484-11.873l-4.452-18.366-2.412-10.76Z" transform="translate(-606.993 -331.988)" fill="#ffb8b8"/>
    <path id="Path_25" data-name="Path 25" d="M814.806,364.168l1.855,1.113s7.05,14.656,5.38,15.769-8.9,3.525-8.9,3.525Z" transform="translate(-605.403 -298.992)" fill="#3f3d56"/>
    <path id="Path_26" data-name="Path 26" d="M550.4,205.811l-4.36-.093-1.02,1.762,1.3,18L553,226.96Z" transform="translate(-371.608 -140.263)" fill="#3f3d56"/>
    <path id="Path_27" data-name="Path 27" d="M736.914,279.239l1.471-.535a10.462,10.462,0,0,0-7.357-2.809l1.2-1.2a5.46,5.46,0,0,0-5.618,1.739,23.889,23.889,0,0,0-4.047,5.167h-1.576l.658,1.315-2.3,1.315,2.362-.236a6.637,6.637,0,0,0,.223,3.406l.535,1.471a42.426,42.426,0,0,0,2.14-4.815v1.338s1.471-1.2,1.471-2.006l.8.936.4-1.471,4.949,1.471-.8-1.2,3.076.4-1.2-1.471s3.478,1.739,3.611,3.21a12.412,12.412,0,0,0,1.052,3.389l1.113-1.3S740.793,281.246,736.914,279.239Z" transform="translate(-541.455 -237.848)" fill="#2f2e41"/>
    <ellipse id="Ellipse_3" data-name="Ellipse 3" cx="0.649" cy="1.67" rx="0.649" ry="1.67" transform="translate(195.026 46.718)" fill="#ffb8b8"/>
    <path id="Path_28" data-name="Path 28" d="M196.592,671.892c3.954,7.334,12.347,10.482,12.347,10.482s1.981-8.742-1.973-16.076-12.347-10.482-12.347-10.482S192.638,664.559,196.592,671.892Z" transform="translate(-183.345 -497.844)" fill="#3f3d56"/>
    <path id="Path_29" data-name="Path 29" d="M176.215,692.315c7.139,4.3,9.889,12.827,9.889,12.827s-8.826,1.568-15.965-2.728-9.889-12.827-9.889-12.827S169.076,688.019,176.215,692.315Z" transform="translate(-160.25 -520.679)" fill="#42a5f5"/>
    <path id="Path_30" data-name="Path 30" d="M442.76,345.766s21.951-11.454,37.224,0,42.3,1.082,42.3,1.082" transform="translate(-352.872 -282.974)" fill="#fff" opacity="0.3"/>
    <circle id="Ellipse_4" data-name="Ellipse 4" cx="3.5" cy="3.5" r="3.5" transform="translate(126.237 172.349)" fill="#fff"/>
  </g>
</svg>
